<?xml version="1.0" encoding="utf-8"?>
<!-- Generator: Adobe Illustrator 27.8.0, SVG Export Plug-In . SVG Version: 6.00 Build 0)  -->
<svg version="1.1" id="Ebene_1" xmlns="http://www.w3.org/2000/svg" xmlns:xlink="http://www.w3.org/1999/xlink" x="0px" y="0px"
	 viewBox="0 0 365 491.35" style="enable-background:new 0 0 365 491.35;" xml:space="preserve">
<style type="text/css">
	.st0{fill:#FFFFFF;}
	.st1{fill:none;stroke:#000000;stroke-width:30;stroke-miterlimit:10;}
	.st2{stroke:#000000;stroke-width:30;stroke-miterlimit:10;}
	.st3{fill:#F6F6F6;}
</style>
<g>
	<g>
		<path class="st0" d="M2096.36,496.92c0-161,0-322,0-483c149.67,0,299.33,0,449,0c0,161,0,322,0,483
			C2395.69,496.92,2246.03,496.92,2096.36,496.92z M2424.79,344.52c16.5-2.32,28.86-11.55,39.8-23.1
			c15.41-16.28,20.1-42.77,9.75-62.56c-12.03-22.99-30.7-36.61-57.73-36.4c-5.21,0.04-10.42,0.01-16.2,0.01
			c4.71-14.79,2.31-28.51-2.59-42.69c-9.29,0-18.78,0-28.5,0c0.24,0.98,0.45,1.94,0.72,2.88c9.2,33.02,0.88,60.81-25.62,82.53
			c-15.26,12.5-32.96,18.11-52.63,13.03c-15.96-4.12-29.49-12.65-40.3-25.32c-14.14-16.57-20.77-35.29-17-57.16
			c0.88-5.12,1.58-10.27,2.38-15.55c-10.69,0.84-20.68,1.62-31.09,2.44c0,13.24,0,25.77,0,38.57c-6.12,0.43-12.7,0.89-19.27,1.35
			c-39.09,2.73-66.64,38.75-58.09,76.32c5.01,22.04,17.67,37.51,39.88,44.22c1.34,0.4,2.53,1.28,3.81,1.94
			c-9.94,21.67-19.63,42.89-29.41,64.06c-7.16,15.49-14.69,30.8-21.6,46.4c-4.81,10.85-3.5,12.82,8.14,15.27
			c0.97,0.2,1.98,0.28,2.97,0.3c12.1,0.31,24.21,0.68,36.32,0.88c19.41,0.32,38.83,0.43,58.24,0.82c6.81,0.14,10.95-2.06,13.97-8.89
			c6.51-14.76,14.26-28.98,21.62-43.65c10.15,8.91,19.95,17.35,29.53,26.04c2.64,2.4,4.68,2.59,7.21,0.21
			c3.14-2.95,6.22-6,9.59-8.67c6.53-5.18,13.25-10.13,20.43-15.59c2.06,3.98,3.82,6.79,5.04,9.83c4.7,11.66,9.24,23.39,13.8,35.11
			c1.51,3.87,3.54,6.07,8.4,5.82c11.59-0.59,23.22-0.5,34.84-0.62c21.91-0.23,43.82-0.24,65.73-0.68c9.65-0.19,12.48-3.9,9.68-13.05
			c-4.51-14.72-9.31-29.38-14.67-43.81C2443.25,391.51,2434.04,368.4,2424.79,344.52z M2201.83,135.54c4.6,0,8.12-0.36,11.53,0.08
			c5.17,0.67,8-1.09,10.11-6.03c4.15-9.7,10.97-12.63,22.91-10.93c6.83,0.97,12.82,7.62,14.16,16.09c0.93,5.9,1.65,11.84,2.2,17.79
			c0.29,3.13,0.18,6.32-0.12,9.45c-0.12,1.23-1.25,2.37-1.91,3.55c-1.01-0.94-2.32-1.71-2.98-2.85c-1.16-2-2.1-4.17-2.8-6.37
			c-1.16-3.62-3.56-4.38-7.16-4.67c-4.03-0.32-8.34-1.28-11.83-3.21c-7.47-4.15-14.97-6.09-23.38-3.78
			c-1.9,0.52-3.96,0.76-5.93,0.66c-3.27-0.16-4.57,1.09-4.21,4.35c0.63,5.77,0.94,11.59,1.87,17.31c0.21,1.26,2.5,3.16,3.77,3.12
			c24.66-0.84,49.29-2.35,73.95-2.87c32.66-0.7,65.37-1.51,98.01-0.62c18.31,0.5,36.53,4.4,54.8,6.67
			c12.5,1.55,25.01,3.08,37.54,4.29c5.2,0.5,11.48-4.47,12.31-8.94c0.78-4.24-3.91-11.09-8.94-12.48
			c-5.43-1.5-10.93-2.84-16.48-3.81c-15.21-2.67-30.45-5.15-45.7-7.61c-3.98-0.64-5.92-2.19-6.09-6.75
			c-0.64-16.48-4.73-32.24-12.8-46.63c-16.03-28.55-41.67-42.65-73.25-47.32c-1.73-0.26-3.48-0.31-5.17-0.45
			c0-10.45-2.72-14.15-11.21-14.86c-3.93-0.33-8.02-0.12-11.89,0.63c-9.69,1.88-12.09,5.7-10.49,15.48c0.1,0.61-0.08,1.26-0.14,2.09
			c-21.69,4.36-40.61,14.04-55.76,29.95C2211.37,92.98,2202.77,112.33,2201.83,135.54z M2330.62,223.53
			c9.35-0.09,15.44-6.32,15.44-15.8c0.01-8.29-6.06-14.73-13.77-14.63c-8.37,0.11-15.84,7.74-15.86,16.2
			C2316.41,217.33,2322.67,223.61,2330.62,223.53z M2290.13,208.56c0.07-7.69-6.46-14.73-13.83-14.93
			c-7.9-0.22-15.02,7.34-15.13,16.06c-0.1,8.21,5.64,14.68,13.09,14.76C2282.91,224.53,2290.06,217.38,2290.13,208.56z
			 M2406.66,178.86c0.46,5.22,0.57,9.21,1.32,13.07c0.2,1.02,2.48,2.53,3.58,2.36c12.06-1.9,24.09-4.01,36.09-6.29
			c1.98-0.38,3.75-1.83,6.45-3.21C2437.69,182.74,2422.51,180.85,2406.66,178.86z"/>
		<path d="M2424.79,344.52c9.25,23.88,18.46,46.99,27.12,70.29c5.36,14.43,10.16,29.09,14.67,43.81c2.8,9.14-0.03,12.85-9.68,13.05
			c-21.91,0.44-43.82,0.45-65.73,0.68c-11.61,0.12-23.24,0.03-34.84,0.62c-4.86,0.25-6.89-1.95-8.4-5.82
			c-4.56-11.72-9.1-23.44-13.8-35.11c-1.22-3.03-2.98-5.85-5.04-9.83c-7.17,5.45-13.89,10.4-20.43,15.59
			c-3.37,2.67-6.45,5.72-9.59,8.67c-2.53,2.38-4.57,2.19-7.21-0.21c-9.58-8.69-19.38-17.13-29.53-26.04
			c-7.36,14.67-15.11,28.89-21.62,43.65c-3.01,6.84-7.16,9.03-13.97,8.89c-19.41-0.39-38.83-0.5-58.24-0.82
			c-12.11-0.2-24.21-0.57-36.32-0.88c-0.99-0.03-2-0.1-2.97-0.3c-11.64-2.44-12.95-4.42-8.14-15.27
			c6.91-15.59,14.44-30.91,21.6-46.4c9.78-21.17,19.47-42.39,29.41-64.06c-1.28-0.66-2.48-1.54-3.81-1.94
			c-22.21-6.72-34.87-22.18-39.88-44.22c-8.54-37.57,19.01-73.59,58.09-76.32c6.57-0.46,13.15-0.92,19.27-1.35
			c0-12.81,0-25.33,0-38.57c10.4-0.82,20.39-1.6,31.09-2.44c-0.8,5.28-1.5,10.43-2.38,15.55c-3.77,21.87,2.87,40.59,17,57.16
			c10.81,12.67,24.34,21.2,40.3,25.32c19.67,5.08,37.37-0.53,52.63-13.03c26.51-21.72,34.82-49.51,25.62-82.53
			c-0.26-0.94-0.47-1.9-0.72-2.88c9.72,0,19.21,0,28.5,0c4.9,14.18,7.3,27.9,2.59,42.69c5.78,0,10.99,0.04,16.2-0.01
			c27.03-0.21,45.7,13.41,57.73,36.4c10.35,19.79,5.67,46.28-9.75,62.56C2453.65,332.97,2441.29,342.2,2424.79,344.52z
			 M2301.42,326.65c-2.81-1.91-4.82-3.1-6.63-4.54c-9.09-7.26-17.88-14.92-27.23-21.82c-18.26-13.48-35.66-27.74-48.73-46.63
			c-0.75-1.08-2.89-2.22-3.96-1.91c-8.11,2.38-16.11,0.65-24.2,0.12c-18.27-1.2-31.81,8.53-34.75,26.22
			c-3.77,22.72,12.46,44.56,36.31,41.3c5.26-0.72,10.54-1.37,15.82-1.94c3.77-0.41,4.88,1.45,3.61,4.82
			c-1.47,3.88-2.92,7.79-4.68,11.55c-14.3,30.51-28.68,60.98-42.99,91.48c-3.15,6.7-6.11,13.49-9.66,21.34
			c11.38-0.63,21.54-1.19,31.08-1.72c0.02-0.01-0.56,0.18-1.14,0.36c0.01,0.4,0.03,0.79,0.04,1.19c10.82,0,21.65,0,33.75,0
			c11.2-23.55,22.98-48.3,35.05-73.67c2.51,2.37,4.06,3.83,5.62,5.29c11.62,10.89,23.26,21.76,34.87,32.66
			c2.89,2.71,5.56,2.91,8.65,0.1c6.88-6.26,13.98-12.27,20.91-18.48c5.64-5.05,11.14-10.25,16.9-15.55
			c0.87,1.27,1.46,1.89,1.77,2.63c8.91,20.92,17.99,41.78,26.52,62.86c1.54,3.81,3.09,5.12,6.97,5.01
			c15.11-0.43,30.24-0.54,45.35-1.02c2.91-0.09,5.87-1.05,8.65-2.05c2.75-0.98,3.58-2.84,2.2-5.9c-3.08-6.79-5.97-13.68-8.58-20.66
			c-10.97-29.35-22.05-58.67-32.58-88.18c-3.94-11.04-5.21-10.75,7.68-10.76c9.44,0,19.11,0.38,28.28-1.45
			c16.83-3.36,26.6-21.6,22.95-40.27c-3.1-15.86-23.2-29.57-38.42-26.31c-5.51,1.18-11.2,1.63-16.65,3.01
			c-2.79,0.71-5.68,2.27-7.79,4.24c-9.31,8.71-17.57,18.74-27.67,26.37C2339.85,298.62,2318.1,308.99,2301.42,326.65z"/>
		<path d="M2201.83,135.54c0.94-23.22,9.54-42.56,24.89-58.67c15.15-15.91,34.07-25.59,55.76-29.95c0.06-0.83,0.24-1.48,0.14-2.09
			c-1.6-9.78,0.8-13.6,10.49-15.48c3.87-0.75,7.97-0.96,11.89-0.63c8.5,0.72,11.21,4.42,11.21,14.86c1.68,0.14,3.44,0.2,5.17,0.45
			c31.58,4.68,57.22,18.77,73.25,47.32c8.08,14.38,12.16,30.15,12.8,46.63c0.18,4.56,2.11,6.11,6.09,6.75
			c15.25,2.46,30.49,4.94,45.7,7.61c5.55,0.97,11.05,2.31,16.48,3.81c5.03,1.39,9.73,8.24,8.94,12.48
			c-0.83,4.47-7.11,9.44-12.31,8.94c-12.54-1.2-25.04-2.74-37.54-4.29c-18.27-2.27-36.48-6.17-54.8-6.67
			c-32.64-0.89-65.34-0.08-98.01,0.62c-24.66,0.52-49.3,2.03-73.95,2.87c-1.28,0.04-3.57-1.86-3.77-3.12
			c-0.93-5.72-1.24-11.54-1.87-17.31c-0.36-3.26,0.95-4.52,4.21-4.35c1.97,0.1,4.03-0.13,5.93-0.66c8.41-2.31,15.91-0.37,23.38,3.78
			c3.49,1.94,7.8,2.89,11.83,3.21c3.6,0.29,6,1.05,7.16,4.67c0.71,2.2,1.65,4.37,2.8,6.37c0.66,1.14,1.97,1.91,2.98,2.85
			c0.67-1.18,1.8-2.32,1.91-3.55c0.3-3.13,0.4-6.33,0.12-9.45c-0.55-5.95-1.27-11.89-2.2-17.79c-1.34-8.47-7.33-15.12-14.16-16.09
			c-11.94-1.69-18.76,1.24-22.91,10.93c-2.11,4.94-4.94,6.7-10.11,6.03C2209.95,135.18,2206.43,135.54,2201.83,135.54z
			 M2301.87,96.69c-0.25,0.02-0.5,0.05-0.75,0.07c0.61,6.88,1.23,13.76,1.84,20.64c0.28-0.03,0.55-0.05,0.83-0.08
			C2303.16,110.45,2302.52,103.57,2301.87,96.69z M2294.56,64.88c-0.4,0.12-0.8,0.23-1.2,0.35c1.55,5.3,3.1,10.59,4.66,15.89
			c0.37-0.11,0.74-0.21,1.11-0.32C2297.6,75.49,2296.08,70.19,2294.56,64.88z M2290.7,60.78c-4.89-5.92-7.74-6.89-11.11-4.55
			C2283.01,57.64,2287.07,59.3,2290.7,60.78z"/>
		<path d="M2330.62,223.53c-7.95,0.08-14.2-6.2-14.18-14.23c0.02-8.46,7.49-16.08,15.86-16.2c7.71-0.11,13.77,6.34,13.77,14.63
			C2346.06,217.21,2339.97,223.45,2330.62,223.53z"/>
		<path d="M2290.13,208.56c-0.07,8.82-7.22,15.96-15.88,15.88c-7.45-0.07-13.19-6.54-13.09-14.76c0.11-8.71,7.23-16.27,15.13-16.06
			C2283.68,193.83,2290.2,200.87,2290.13,208.56z"/>
		<path d="M2406.66,178.86c15.85,1.98,31.03,3.88,47.44,5.93c-2.7,1.38-4.47,2.83-6.45,3.21c-12,2.28-24.03,4.39-36.09,6.29
			c-1.1,0.17-3.38-1.34-3.58-2.36C2407.23,188.07,2407.12,184.09,2406.66,178.86z"/>
		<path class="st0" d="M2301.42,326.65c16.68-17.66,38.43-28.03,57.32-42.31c10.09-7.63,18.35-17.66,27.67-26.37
			c2.11-1.97,5-3.53,7.79-4.24c5.45-1.38,11.14-1.83,16.65-3.01c15.22-3.26,35.32,10.45,38.42,26.31
			c3.65,18.67-6.13,36.9-22.95,40.27c-9.16,1.83-18.83,1.45-28.28,1.45c-12.89,0.01-11.62-0.28-7.68,10.76
			c10.53,29.51,21.61,58.83,32.58,88.18c2.61,6.98,5.5,13.87,8.58,20.66c1.38,3.06,0.55,4.92-2.2,5.9c-2.78,1-5.74,1.95-8.65,2.05
			c-15.11,0.47-30.24,0.58-45.35,1.02c-3.88,0.11-5.42-1.2-6.97-5.01c-8.53-21.08-17.6-41.94-26.52-62.86
			c-0.31-0.74-0.9-1.36-1.77-2.63c-5.75,5.31-11.26,10.5-16.9,15.55c-6.93,6.21-14.03,12.22-20.91,18.48
			c-3.09,2.8-5.76,2.61-8.65-0.1c-11.61-10.9-23.25-21.78-34.87-32.66c-1.56-1.46-3.11-2.92-5.62-5.29
			c-12.07,25.38-23.85,50.12-35.05,73.67c-12.1,0-22.93,0-33.75,0c-0.01-0.4-0.03-0.79-0.04-1.19c0.58-0.18,1.16-0.37,1.14-0.36
			c-9.54,0.53-19.7,1.09-31.08,1.72c3.55-7.85,6.51-14.64,9.66-21.34c14.31-30.5,28.7-60.97,42.99-91.48
			c1.76-3.76,3.21-7.66,4.68-11.55c1.27-3.37,0.17-5.23-3.61-4.82c-5.28,0.58-10.56,1.23-15.82,1.94
			c-23.85,3.26-40.08-18.58-36.31-41.3c2.93-17.69,16.48-27.43,34.75-26.22c8.09,0.53,16.1,2.27,24.2-0.12
			c1.07-0.32,3.21,0.82,3.96,1.91c13.07,18.89,30.48,33.15,48.73,46.63c9.35,6.9,18.14,14.56,27.23,21.82
			C2296.6,323.55,2298.61,324.74,2301.42,326.65z"/>
		<path class="st0" d="M2301.87,96.69c0.64,6.88,1.28,13.76,1.92,20.63c-0.28,0.03-0.55,0.05-0.83,0.08
			c-0.61-6.88-1.23-13.76-1.84-20.64C2301.37,96.74,2301.62,96.71,2301.87,96.69z"/>
		<path class="st0" d="M2294.56,64.88c1.52,5.31,3.05,10.61,4.57,15.92c-0.37,0.11-0.74,0.21-1.11,0.32
			c-1.55-5.3-3.1-10.59-4.66-15.89C2293.76,65.11,2294.16,65,2294.56,64.88z"/>
		<path class="st0" d="M2290.7,60.78c-3.62-1.48-7.69-3.15-11.11-4.55C2282.96,53.89,2285.81,54.86,2290.7,60.78z"/>
	</g>
</g>
<path class="st1" d="M256.39,422.37"/>
<path class="st1" d="M97.26,222.63c-2.38-0.3-10.43,0-21.05,0c-3.2,0-20.22,0.32-33.97,14.07c-8.69,8.69-14.07,20.7-14.07,33.97v0
	c0,26.53,21.51,48.04,48.04,48.04h19.11l-66.6,150.61c-0.07,0.17,0.05,0.36,0.23,0.36h91.97c0.59,0,1.13-0.34,1.37-0.88l28.93-62.68
	l28.62,33.06c0.52,0.6,1.46,0.6,1.98,0l28.62-33.06l28.42,61.57c0.56,1.21,1.77,1.99,3.11,1.99h90.45c0.33,0,0.55-0.34,0.41-0.64
	l-66.48-150.33h19.11c26.53,0,48.04-21.51,48.04-48.04v0c0-26.53-21.51-48.04-48.04-48.04c-8.15,0-16.31,0-24.46,0"/>
<circle cx="147.68" cy="183.22" r="17.73"/>
<circle cx="213.99" cy="183.22" r="17.73"/>
<path class="st1" d="M1980.67,252.1L1980.67,252.1c0-26.53-21.51-48.04-48.04-48.04h-209.25c-26.53,0-48.04,21.51-48.04,48.04v0
	c0,26.53,21.51,48.04,48.04,48.04h19.11l-66.6,150.61c-0.07,0.17,0.05,0.36,0.23,0.36h91.97c0.59,0,1.13-0.34,1.37-0.88l28.93-62.68
	l28.62,33.06c0.52,0.6,1.46,0.6,1.98,0l28.62-33.06l28.42,61.57c0.56,1.21,1.77,1.99,3.11,1.99h90.45c0.33,0,0.55-0.34,0.41-0.64
	l-66.48-150.33h19.11C1959.16,300.14,1980.67,278.63,1980.67,252.1z"/>
<path class="st2" d="M1761.44,220.08c-34.56-37.49-36.68-96.15,0-132.83c36.68-36.68,96.15-36.68,132.83,0
	c36.68,36.68,35.32,96.22,0,132.83c-14.49,15.02-66.42,50.59-66.42,50.59S1775.59,235.42,1761.44,220.08z"/>
<circle class="st3" cx="1828" cy="153.93" r="82.92"/>
<circle cx="1794.85" cy="157.65" r="17.73"/>
<circle cx="1861.15" cy="157.65" r="17.73"/>
<path d="M1856.92,194.03c-8.83,3.2-18.35,4.95-28.28,4.95c-10.42,0-20.38-1.94-29.57-5.45c10.14,7.57,21.07,15.31,29.37,21.05
	C1836.48,208.95,1847.01,201.43,1856.92,194.03z"/>
<path d="M260.99,151.24c1.8,6.79,2.76,13.91,2.76,21.26c0,45.8-37.12,82.92-82.92,82.92c-45.8,0-82.92-37.12-82.92-82.92
	c0-7.24,0.93-14.26,2.68-20.95c-8.82,0.17-17.65,0.38-26.47,0.56c-5.85,33.3,3.85,69.29,29.13,96.7
	c21.56,21.54,64.25,49.55,77.51,58.56c13.25-9.26,55.24-37.18,77.14-58.31c29.27-31.3,36.42-66.51,29.32-97.83
	C278.48,151.24,269.73,151.24,260.99,151.24z"/>
<path d="M345.86,130.79l-58.87-8c0-52.61-39.18-96.16-90.21-103.55c0.07-0.37,0.11-0.74,0.11-1.11c0-5.4-6.95-9.78-15.53-9.78
	c-8.58,0-15.53,4.38-15.53,9.78c0,0.38,0.04,0.75,0.11,1.11c-51.03,7.4-90.21,50.94-90.21,103.55v20.33l185.28-2.7
	c13.53-0.2,27.07,0.54,40.5,2.2l44.35,5.5c3.53,0,6.39-2.84,6.39-6.33v-4.67C352.25,133.63,349.39,130.79,345.86,130.79z"/>
<path d="M296.95,151.47l42.71,4.98c-5.67,5.44-12.95,8.99-20.44,12.67c-6.1,3-12.67,5.67-20.34,7.36c0.01-1.9,0.01-3.79,0.02-5.69
	c0.01-4.48-0.33-8.96-1.02-13.39L296.95,151.47z"/>
<path class="st1" d="M1520.11,420.2"/>
<path class="st1" d="M1597.22,268.51L1597.22,268.51c0-26.53-21.51-48.04-48.04-48.04h-209.25c-26.53,0-48.04,21.51-48.04,48.04v0
	c0,26.53,21.51,48.04,48.04,48.04h19.11l-66.6,150.61c-0.07,0.17,0.05,0.36,0.23,0.36h91.97c0.59,0,1.13-0.34,1.37-0.88l28.93-62.68
	l28.62,33.06c0.52,0.6,1.46,0.6,1.98,0l28.62-33.06l28.42,61.57c0.56,1.21,1.77,1.99,3.11,1.99h90.45c0.33,0,0.55-0.34,0.41-0.64
	l-66.48-150.33h19.11C1575.72,316.55,1597.22,295.04,1597.22,268.51z"/>
<g>
	<g>
		<path d="M1510.83,103.65c-115.09-96.38-255.7,84.64-66.42,183.42C1505.84,250.11,1580.53,184.36,1510.83,103.65z"/>
		<path d="M1444.48,305.21c-13.26-9.01-55.95-37.02-77.51-58.56c-41.21-44.69-41.02-112.17,0.42-153.61
			c103.08-98.88,252,49.3,154.23,153.85C1499.72,268.04,1457.74,295.95,1444.48,305.21z M1444.42,91.14
			c-68.61-1.44-104.27,85.38-55.38,135.17c8.93,9.69,37.91,30.49,55.33,42.55c17.39-12.19,46.42-33.2,55.68-42.79
			C1549.17,177.93,1512.82,89.23,1444.42,91.14z"/>
	</g>
</g>
<circle class="st0" cx="1444.56" cy="170.34" r="82.92"/>
<circle cx="1411.4" cy="181.05" r="17.73"/>
<circle cx="1477.71" cy="181.05" r="17.73"/>
<path class="st0" d="M1600.61,149.4c-69.54,0-139.08,0-208.61,0c-29.72,0-59.44,1-89.16,1c0-27.75,0-56.49,0-84.24h297.78V149.4z"/>
<path d="M1609.59,128.63l-58.87-8c0-52.61-39.18-96.16-90.21-103.55c0.07-0.37,0.11-0.74,0.11-1.11c0-5.4-6.95-9.78-15.53-9.78
	c-8.58,0-15.53,4.38-15.53,9.78c0,0.38,0.04,0.75,0.11,1.11c-51.03,7.4-90.21,50.94-90.21,103.55v20.33l185.28-2.7
	c13.53-0.2,27.07,0.54,40.5,2.2l44.35,5.5c3.53,0,6.39-2.84,6.39-6.33v-4.67C1615.98,131.46,1613.12,128.63,1609.59,128.63z"/>
<path d="M1560.68,149.3l42.71,4.98c-5.67,5.44-12.95,8.99-20.44,12.67c-6.1,3-12.67,5.67-20.34,7.36c0.01-1.9,0.01-3.79,0.02-5.69
	c0.01-4.48-0.33-8.96-1.02-13.39L1560.68,149.3z"/>
</svg>
